<?xml version="1.0" standalone="no"?>
<!DOCTYPE svg PUBLIC "-//W3C//DTD SVG 20010904//EN"
 "http://www.w3.org/TR/2001/REC-SVG-20010904/DTD/svg10.dtd">
<svg version="1.0" xmlns="http://www.w3.org/2000/svg"
 width="178.000000pt" height="194.000000pt" viewBox="0 0 178.000000 194.000000"
 preserveAspectRatio="xMidYMid meet">

<g transform="translate(0.000000,194.000000) scale(0.100000,-0.100000)"
fill="#6e0fc7" stroke="none">
<path d="M550 1539 c-162 -93 -307 -183 -322 -200 l-28 -29 0 -359 c0 -409 -5
-383 92 -439 29 -17 167 -96 307 -176 139 -80 263 -146 274 -146 29 0 606 335
640 371 l27 29 0 359 c0 409 5 383 -92 439 -29 17 -167 96 -307 176 -139 80
-263 146 -275 146 -11 0 -154 -77 -316 -171z m225 -319 l90 -90 -90 -90 -90
-90 90 -90 90 -90 -93 -93 -92 -92 -92 92 -93 93 90 90 90 90 -90 90 -90 90
90 90 c49 50 92 90 95 90 3 0 46 -40 95 -90z m370 0 l90 -90 -90 -90 -90 -90
90 -90 90 -90 -93 -93 -92 -92 -92 92 -93 93 90 90 90 90 -90 90 -90 90 90 90
c49 50 92 90 95 90 3 0 46 -40 95 -90z"/>
</g>
</svg>
