<?xml version="1.0" standalone="no"?>
<!DOCTYPE svg PUBLIC "-//W3C//DTD SVG 20010904//EN"
 "http://www.w3.org/TR/2001/REC-SVG-20010904/DTD/svg10.dtd">
<svg version="1.0" xmlns="http://www.w3.org/2000/svg"
 width="1080.000000pt" height="1080.000000pt" viewBox="0 0 1080.000000 1080.000000"
 preserveAspectRatio="xMidYMid meet">
<metadata>
Created by potrace 1.14, written by Peter Selinger 2001-2017
</metadata>
<g transform="translate(0.000000,1080.000000) scale(0.100000,-0.100000)"
fill="#000000" stroke="none">
<path d="M5339 10602 c-30 -16 -844 -484 -1809 -1042 -965 -557 -1953 -1127
-2195 -1267 -242 -139 -448 -263 -458 -274 -16 -20 -17 -160 -17 -2621 l0
-2601 34 -31 c18 -17 186 -119 372 -225 187 -107 697 -402 1134 -654 953 -550
1648 -951 2175 -1256 215 -123 482 -278 595 -343 115 -67 215 -118 230 -118
14 0 114 51 230 118 427 247 633 365 1230 710 754 436 685 396 1970 1136 580
335 1067 621 1083 637 l27 29 -2 2606 -3 2605 -23 18 c-13 9 -144 87 -290 171
-147 85 -595 344 -997 575 -2572 1486 -3192 1843 -3211 1849 -14 4 -40 -3 -75
-22z m221 -1353 c205 -33 411 -157 546 -331 265 -341 244 -835 -48 -1152 l-69
-75 201 -335 c110 -184 208 -343 218 -355 l17 -20 70 20 c324 93 696 -17 915
-271 304 -354 295 -863 -24 -1207 l-57 -61 101 -172 c84 -142 317 -529 324
-537 2 -2 47 8 100 22 138 35 304 35 440 1 500 -127 791 -648 634 -1136 -120
-372 -457 -620 -845 -620 -181 0 -323 39 -481 132 -85 49 -238 207 -294 303
-204 346 -153 780 123 1070 l58 61 -79 139 c-79 139 -104 195 -54 122 14 -21
28 -36 31 -34 9 10 -68 161 -117 227 -61 83 -87 107 -64 60 35 -69 4 -33 -67
78 -83 130 -75 126 -179 96 -92 -27 -358 -27 -445 0 -106 31 -94 37 -162 -71
-82 -131 -98 -150 -72 -90 11 27 19 50 17 52 -1 1 -23 12 -48 24 -51 24 -71
36 -119 70 -25 18 -38 22 -50 14 -24 -14 -124 -166 -178 -271 l-48 -94 25 -19
c14 -10 31 -24 38 -29 6 -6 12 -8 12 -5 0 11 57 -24 89 -54 18 -17 35 -31 38
-31 2 0 20 17 39 38 42 43 39 37 -48 -116 l-58 -104 63 -69 c401 -439 286
-1120 -235 -1398 -40 -22 -111 -52 -158 -67 -80 -27 -95 -28 -260 -28 -165 0
-180 1 -260 28 -294 96 -500 303 -596 596 -26 79 -28 97 -28 250 -1 182 8 234
67 370 115 265 355 456 646 515 115 24 295 17 410 -15 70 -19 85 -21 92 -9 5
8 46 73 90 144 45 72 138 226 206 343 l125 213 -59 62 c-255 267 -319 660
-164 993 48 101 85 156 162 238 l59 63 -86 149 c-47 82 -96 167 -108 189 -42
73 -217 350 -231 364 -11 11 -21 11 -61 -2 -27 -9 -77 -21 -111 -28 -84 -16
-300 -7 -378 16 -33 10 -69 19 -80 22 -16 3 -36 -23 -114 -147 -51 -82 -95
-150 -97 -150 -2 0 12 32 32 71 19 39 33 78 30 86 -4 9 -1 12 7 8 6 -4 -1 5
-18 19 -16 14 -36 26 -42 26 -7 0 -13 5 -13 11 0 5 -4 8 -9 4 -5 -3 -15 1 -23
8 -7 7 -25 21 -39 31 -37 23 -42 63 -18 136 l20 61 -57 62 c-115 124 -192 272
-229 441 -23 105 -16 308 14 414 131 453 549 715 1021 641z m-690 -2049 c-6
-11 -13 -20 -16 -20 -2 0 0 9 6 20 6 11 13 20 16 20 2 0 0 -9 -6 -20z m-38
-62 c-11 -18 -56 -98 -101 -177 l-81 -143 59 -63 c77 -83 114 -138 162 -240
63 -135 82 -218 82 -375 1 -110 -4 -151 -22 -219 -71 -267 -245 -474 -494
-591 -137 -65 -235 -83 -407 -77 -112 3 -160 9 -214 27 -57 18 -71 19 -81 8
-7 -7 -59 -87 -115 -178 -95 -152 -155 -238 -100 -145 52 88 91 177 88 198 -2
14 -17 28 -40 40 -21 9 -38 21 -38 25 0 5 -6 9 -14 9 -24 0 -74 47 -78 73 -3
24 2 50 23 119 10 31 9 36 -28 75 -134 140 -214 292 -247 466 -87 456 188 901
634 1030 144 42 358 39 506 -7 l52 -16 54 55 c37 38 63 56 86 60 17 2 32 1 32
-3 0 -4 17 -13 38 -19 20 -7 48 -22 62 -35 55 -48 74 -40 145 65 50 73 71 94
37 38z m2418 -2119 c15 -28 5 -23 -15 7 -9 15 -12 23 -6 20 6 -4 16 -16 21
-27z m45 -75 c9 -15 12 -23 6 -20 -11 7 -35 46 -28 46 3 0 12 -12 22 -26z
m-3826 -81 c-18 -32 -61 -107 -96 -168 l-62 -109 58 -61 c280 -294 328 -724
120 -1078 -51 -87 -209 -247 -291 -295 -158 -93 -300 -132 -481 -132 -238 0
-451 87 -621 254 -348 344 -353 914 -9 1260 111 112 267 203 413 241 138 36
349 31 487 -12 l52 -16 58 60 c48 48 65 59 91 59 18 0 32 -3 32 -7 0 -4 10
-11 23 -15 12 -4 45 -21 72 -39 28 -17 57 -29 65 -27 18 6 40 32 81 95 43 65
47 59 8 -10z"/>
<path d="M5876 7320 c7 -28 133 -235 164 -271 l21 -24 -19 40 c-11 22 -23 51
-27 65 -4 14 -23 49 -42 78 -36 58 -39 62 -78 107 -25 29 -26 29 -19 5z"/>
</g>
</svg>
