<?xml version="1.0" standalone="no"?>
<!DOCTYPE svg PUBLIC "-//W3C//DTD SVG 20010904//EN"
 "http://www.w3.org/TR/2001/REC-SVG-20010904/DTD/svg10.dtd">
<svg version="1.0" xmlns="http://www.w3.org/2000/svg"
 width="1036.000000pt" height="1036.000000pt" viewBox="0 0 1036.000000 1036.000000"
 preserveAspectRatio="xMidYMid meet">
<metadata>
Created by potrace 1.14, written by Peter Selinger 2001-2017
</metadata>
<g transform="translate(0.000000,1036.000000) scale(0.100000,-0.100000)"
fill="#000000" stroke="none">
<path d="M5020 9117 c0 -6 -3 -8 -6 -5 -3 3 -42 -12 -87 -34 -45 -22 -82 -39
-82 -37 0 2 -7 -2 -15 -9 -8 -7 -58 -34 -110 -61 -132 -67 -184 -95 -190 -101
-3 -3 -43 -25 -90 -49 -47 -25 -102 -55 -122 -68 -21 -13 -38 -21 -38 -17 0 3
-13 -4 -29 -15 -16 -12 -34 -21 -39 -21 -6 0 -12 -3 -14 -7 -1 -5 -19 -16 -38
-27 -19 -10 -73 -39 -120 -63 -47 -25 -92 -51 -100 -57 -13 -10 -42 -26 -105
-60 -11 -6 -22 -13 -25 -16 -3 -3 -19 -12 -35 -21 -75 -39 -140 -74 -145 -79
-7 -8 -239 -140 -277 -159 -18 -8 -33 -19 -33 -23 0 -4 -5 -8 -11 -8 -6 0 -24
-9 -40 -21 -16 -11 -29 -17 -29 -12 0 4 -4 3 -8 -3 -4 -6 -32 -24 -62 -41 -30
-17 -107 -61 -170 -98 -63 -37 -158 -93 -210 -123 -52 -30 -96 -59 -98 -64 -2
-4 -8 -8 -13 -8 -12 0 -183 -102 -187 -112 -2 -5 -10 -8 -17 -8 -8 0 -20 -6
-27 -12 -8 -7 -24 -19 -36 -25 -57 -33 -67 -39 -76 -46 -6 -4 -81 -51 -166
-103 -85 -53 -181 -114 -212 -135 -32 -21 -61 -39 -65 -39 -3 0 -15 -7 -25
-17 -10 -9 -27 -21 -37 -27 -53 -31 -131 -89 -131 -99 0 -6 -3 -7 -7 -4 -3 4
-48 -36 -100 -89 -82 -85 -93 -101 -93 -133 -1 -20 -1 -693 -1 -1496 0 -1344
4 -1823 16 -1980 10 -125 21 -230 25 -230 3 0 9 -39 12 -68 1 -16 6 -31 10
-33 4 -3 8 -14 8 -26 0 -38 61 -142 113 -194 48 -47 194 -144 217 -144 5 0 10
-4 10 -10 0 -5 4 -10 9 -10 6 0 60 -29 122 -65 61 -36 115 -65 119 -65 4 0 13
-7 20 -15 7 -8 16 -12 21 -9 5 3 9 1 9 -3 0 -5 19 -19 43 -31 23 -12 56 -30
72 -40 17 -10 51 -30 76 -44 82 -46 94 -53 99 -58 3 -3 21 -13 40 -23 19 -10
44 -23 55 -30 11 -7 71 -41 133 -77 62 -36 130 -75 150 -87 20 -12 51 -29 67
-37 17 -9 48 -27 70 -40 22 -14 56 -32 75 -42 19 -10 63 -35 97 -56 35 -21 67
-38 73 -38 5 0 10 -4 10 -9 0 -5 11 -12 24 -15 14 -3 31 -12 38 -19 13 -12 81
-51 125 -72 13 -5 23 -13 23 -17 0 -5 5 -8 11 -8 9 0 116 -60 179 -100 8 -5
31 -17 50 -25 19 -9 37 -19 40 -23 3 -4 16 -13 30 -19 14 -7 48 -25 75 -41 65
-38 120 -69 170 -97 22 -13 65 -37 95 -54 30 -18 71 -39 90 -49 19 -9 37 -19
40 -22 5 -5 11 -8 145 -81 44 -23 112 -60 150 -81 181 -99 515 -260 538 -260
14 0 55 13 92 30 36 17 69 32 73 32 13 3 67 35 74 45 4 6 8 6 8 1 0 -5 6 -4
13 1 6 6 80 45 162 88 83 43 152 81 155 85 6 8 43 24 53 22 4 -1 7 3 7 9 0 5
4 8 9 5 5 -4 11 -2 13 2 2 8 90 58 190 109 15 8 30 19 33 24 4 5 10 7 15 4 4
-3 13 2 20 10 7 8 16 15 20 15 4 0 47 23 96 51 49 28 112 64 139 79 28 14 94
52 147 83 54 31 100 57 102 57 3 0 24 13 48 29 24 16 53 32 66 35 12 4 22 11
22 15 0 5 15 15 32 22 18 7 79 41 135 76 57 34 103 59 103 55 0 -4 4 -2 8 3 4
6 57 39 117 74 61 35 134 79 162 97 29 19 55 34 57 34 6 0 130 73 136 80 3 4
20 13 38 21 17 8 32 17 32 21 0 5 7 8 15 8 8 0 15 4 15 9 0 5 11 12 25 15 14
4 25 11 25 16 0 6 5 10 10 10 9 0 161 88 250 145 19 12 96 60 170 105 74 46
164 102 200 125 36 23 101 65 145 94 84 54 214 152 215 161 0 3 27 34 59 68
l59 63 -3 1692 c-2 931 -6 1719 -8 1752 -14 183 -39 380 -48 380 -1 0 -3 9 -4
20 -10 64 -76 179 -132 228 -20 18 -41 37 -47 43 -6 5 -18 13 -26 17 -8 4 -28
15 -45 26 -16 10 -46 27 -65 38 -108 63 -258 148 -280 160 -14 8 -38 23 -55
33 -16 11 -46 27 -65 36 -19 10 -62 35 -96 56 -34 21 -66 38 -73 38 -6 0 -11
4 -11 9 0 5 -8 11 -17 14 -17 6 -41 19 -153 86 -25 14 -58 33 -75 41 -16 8
-32 17 -35 20 -10 10 -153 90 -161 90 -5 0 -9 5 -9 12 0 6 -3 8 -7 5 -3 -4
-13 -1 -22 7 -9 7 -47 30 -86 51 -38 21 -87 49 -107 62 -21 12 -42 23 -48 23
-5 0 -10 5 -10 12 0 6 -3 9 -6 5 -3 -3 -30 10 -59 29 -30 19 -56 34 -59 34 -9
0 -131 75 -134 82 -2 5 -12 8 -22 8 -10 0 -21 4 -25 9 -3 6 -18 16 -33 24 -15
7 -44 23 -64 35 -21 12 -55 31 -75 43 -21 12 -63 36 -93 54 -30 18 -76 44
-102 59 -115 63 -146 81 -201 112 -32 19 -60 34 -62 34 -2 0 -42 23 -90 50
-48 28 -88 50 -90 50 -2 0 -34 17 -72 38 -94 53 -184 102 -273 147 -41 21 -82
44 -90 51 -8 7 -19 13 -25 14 -5 1 -28 12 -50 23 -22 12 -43 21 -47 22 -4 0
-13 6 -20 13 -6 6 -17 12 -23 12 -6 0 -37 14 -68 30 -32 17 -65 30 -73 30 -8
0 -14 4 -14 8 0 5 -18 9 -40 9 -22 0 -40 -5 -40 -10z m-890 -2174 c25 -21 240
-231 478 -468 238 -236 438 -430 443 -430 5 0 184 173 397 385 436 433 569
560 592 560 23 0 139 -109 565 -533 214 -214 399 -395 409 -403 18 -13 -12
-45 -460 -494 -263 -264 -481 -482 -482 -484 -2 -3 210 -219 472 -480 262
-262 476 -479 476 -484 0 -8 -927 -938 -951 -953 -8 -5 -10 -9 -5 -9 6 0 2 -6
-7 -13 -16 -11 -75 45 -512 482 l-494 493 -491 -491 c-270 -270 -494 -491
-497 -491 -8 0 -983 973 -983 981 0 3 214 219 475 480 261 261 475 477 475
481 0 4 -214 221 -475 482 -261 261 -475 478 -475 481 0 6 698 703 832 830
114 108 149 134 163 123 5 -4 30 -25 55 -45z"/>
<path d="M4567 5552 l-477 -478 474 -474 c261 -261 479 -476 485 -478 10 -3
966 946 959 953 -26 31 -954 955 -958 955 -3 0 -220 -216 -483 -478z"/>
</g>
</svg>
