{
	"asset":{
		"generator":"Khronos glTF Blender I/O v4.0.44",
		"version":"2.0"
	},
	"extensionsUsed":[
		"EXT_texture_webp",
		"KHR_materials_emissive_strength"
	],
	"extensionsRequired":[
		"EXT_texture_webp"
	],
	"scene":0,
	"scenes":[
		{
			"name":"Scene",
			"nodes":[
				0,
				1
			]
		}
	],
	"nodes":[
		{
			"mesh":0,
			"name":"Main LP",
			"rotation":[
				0.7071068286895752,
				0,
				0,
				0.7071068286895752
			],
			"scale":[
				78.30416107177734,
				78.30416107177734,
				78.30416107177734
			]
		},
		{
			"mesh":1,
			"name":"Strip Lights LP",
			"rotation":[
				0.7071068286895752,
				0,
				0,
				0.7071068286895752
			],
			"scale":[
				78.30416107177734,
				78.30416107177734,
				78.30416107177734
			]
		}
	],
	"materials":[
		{
			"emissiveFactor":[
				1,
				1,
				1
			],
			"emissiveTexture":{
				"index":0
			},
			"extensions":{
				"KHR_materials_emissive_strength":{
					"emissiveStrength":5
				}
			},
			"name":"Main",
			"pbrMetallicRoughness":{
				"baseColorTexture":{
					"index":1
				},
				"metallicFactor":0
			}
		},
		{
			"doubleSided":true,
			"emissiveFactor":[
				0.6868078708648682,
				0.7439422607421875,
				1
			],
			"extensions":{
				"KHR_materials_emissive_strength":{
					"emissiveStrength":100
				}
			},
			"name":"Emit Blue LP",
			"pbrMetallicRoughness":{
				"baseColorFactor":[
					0,
					0,
					0,
					1
				]
			}
		},
		{
			"doubleSided":true,
			"emissiveFactor":[
				1,
				0.858396589756012,
				0.5078091621398926
			],
			"extensions":{
				"KHR_materials_emissive_strength":{
					"emissiveStrength":100
				}
			},
			"name":"Emit Gold LP",
			"pbrMetallicRoughness":{
				"baseColorFactor":[
					0,
					0,
					0,
					1
				]
			}
		}
	],
	"meshes":[
		{
			"name":"path1950.002",
			"primitives":[
				{
					"attributes":{
						"POSITION":0,
						"NORMAL":1,
						"TEXCOORD_0":2
					},
					"indices":3,
					"material":0
				}
			]
		},
		{
			"name":"path1950.007",
			"primitives":[
				{
					"attributes":{
						"POSITION":4,
						"NORMAL":5,
						"TEXCOORD_0":6
					},
					"indices":7,
					"material":1
				},
				{
					"attributes":{
						"POSITION":8,
						"NORMAL":9,
						"TEXCOORD_0":10
					},
					"indices":11,
					"material":2
				}
			]
		}
	],
	"textures":[
		{
			"extensions":{
				"EXT_texture_webp":{
					"source":0
				}
			},
			"sampler":0
		},
		{
			"extensions":{
				"EXT_texture_webp":{
					"source":1
				}
			},
			"sampler":0
		}
	],
	"images":[
		{
			"mimeType":"image/webp",
			"name":"Emit",
			"uri":"Emit.webp"
		},
		{
			"mimeType":"image/webp",
			"name":"Main",
			"uri":"Main.webp"
		}
	],
	"accessors":[
		{
			"bufferView":0,
			"componentType":5126,
			"count":3261,
			"max":[
				0.015702255070209503,
				0.0021213574800640345,
				0.01630818471312523
			],
			"min":[
				-0.015672462061047554,
				-0.0021211947314441204,
				-0.015405192971229553
			],
			"type":"VEC3"
		},
		{
			"bufferView":1,
			"componentType":5126,
			"count":3261,
			"type":"VEC3"
		},
		{
			"bufferView":2,
			"componentType":5126,
			"count":3261,
			"type":"VEC2"
		},
		{
			"bufferView":3,
			"componentType":5123,
			"count":11841,
			"type":"SCALAR"
		},
		{
			"bufferView":4,
			"componentType":5126,
			"count":2316,
			"max":[
				0.007614869624376297,
				0.0001735573896439746,
				0.008103175088763237
			],
			"min":[
				-0.015732264146208763,
				-0.0001735573896439746,
				-0.015464979223906994
			],
			"type":"VEC3"
		},
		{
			"bufferView":5,
			"componentType":5126,
			"count":2316,
			"type":"VEC3"
		},
		{
			"bufferView":6,
			"componentType":5126,
			"count":2316,
			"type":"VEC2"
		},
		{
			"bufferView":7,
			"componentType":5123,
			"count":9720,
			"type":"SCALAR"
		},
		{
			"bufferView":8,
			"componentType":5126,
			"count":1176,
			"max":[
				0.015762055292725563,
				0.00017355762247461826,
				0.01636798121035099
			],
			"min":[
				-0.007632357068359852,
				-0.00017355762247461826,
				-0.007379375863820314
			],
			"type":"VEC3"
		},
		{
			"bufferView":9,
			"componentType":5126,
			"count":1176,
			"type":"VEC3"
		},
		{
			"bufferView":10,
			"componentType":5126,
			"count":1176,
			"type":"VEC2"
		},
		{
			"bufferView":11,
			"componentType":5123,
			"count":3456,
			"type":"SCALAR"
		}
	],
	"bufferViews":[
		{
			"buffer":0,
			"byteLength":39132,
			"byteOffset":0,
			"target":34962
		},
		{
			"buffer":0,
			"byteLength":39132,
			"byteOffset":39132,
			"target":34962
		},
		{
			"buffer":0,
			"byteLength":26088,
			"byteOffset":78264,
			"target":34962
		},
		{
			"buffer":0,
			"byteLength":23682,
			"byteOffset":104352,
			"target":34963
		},
		{
			"buffer":0,
			"byteLength":27792,
			"byteOffset":128036,
			"target":34962
		},
		{
			"buffer":0,
			"byteLength":27792,
			"byteOffset":155828,
			"target":34962
		},
		{
			"buffer":0,
			"byteLength":18528,
			"byteOffset":183620,
			"target":34962
		},
		{
			"buffer":0,
			"byteLength":19440,
			"byteOffset":202148,
			"target":34963
		},
		{
			"buffer":0,
			"byteLength":14112,
			"byteOffset":221588,
			"target":34962
		},
		{
			"buffer":0,
			"byteLength":14112,
			"byteOffset":235700,
			"target":34962
		},
		{
			"buffer":0,
			"byteLength":9408,
			"byteOffset":249812,
			"target":34962
		},
		{
			"buffer":0,
			"byteLength":6912,
			"byteOffset":259220,
			"target":34963
		}
	],
	"samplers":[
		{
			"magFilter":9729,
			"minFilter":9987
		}
	],
	"buffers":[
		{
			"byteLength":266132,
			"uri":"python.bin"
		}
	]
}
